<svg xmlns="http://www.w3.org/2000/svg" width="41.359" height="35.841" viewBox="0 0 41.359 35.841">
  <g id="Group_2701" data-name="Group 2701" transform="translate(-2453.96 748.314)">
    <path id="Path_3577" data-name="Path 3577" d="M2471.555-716.851a3.833,3.833,0,0,1-3.833,3.833,3.833,3.833,0,0,1-3.833-3.833,3.833,3.833,0,0,1,3.833-3.833A3.833,3.833,0,0,1,2471.555-716.851Z" transform="translate(-6.03 -16.78)" fill="#2182ad"/>
    <rect id="Rectangle_1749" data-name="Rectangle 1749" width="6.169" height="10.976" transform="translate(2458.61 -728.102)" fill="#2182ad"/>
    <path id="Path_3578" data-name="Path 3578" d="M2490.51-711.887h-1.1v-3.577h1.1c.679,0,1.461.2,1.461,1.759C2491.97-712.106,2491.268-711.887,2490.51-711.887Z" transform="translate(-21.529 -19.95)" fill="#2182ad"/>
    <path id="Path_3579" data-name="Path 3579" d="M2507.735-722.859v-7.131h1.779v5.356h2.631c-.723-9.719-8.368-11.82-15.319-11.82h-7.406v6.468h1.1c2,0,3.24,1.355,3.24,3.534,0,2.25-1.214,3.6-3.24,3.6h-1.1v12.939h7.406c11.3,0,15.229-5.246,15.37-12.943Zm-8.49,0h-4.394v-7.131h4.253v1.779h-2.478v.825h2.344v1.775h-2.344v.978h2.619Zm5.749,0-.4-1.382h-2.325l-.4,1.382h-1.846l2.148-7.135h2.529l2.148,7.135Zm-1.618-5.172-.589,2.014h1.284l-.589-2.014Z" transform="translate(-21.535 -7.203)" fill="#2182ad"/>
    <path id="Path_3580" data-name="Path 3580" d="M2475.292-748.314H2453.96v35.841h21.332c12.28,0,20.027-6,20.027-17.958C2495.319-740.405,2489.77-748.314,2475.292-748.314Zm0,33.776h-19.266v-31.706h19.266c11.1,0,17.958,5.046,17.958,15.814C2493.25-719.957,2486.923-714.538,2475.292-714.538Z" fill="#2182ad"/>
    <path id="Path_3581" data-name="Path 3581" d="M2475.292-748.314H2453.96v35.841h21.332c12.28,0,20.027-6,20.027-17.958C2495.319-740.405,2489.77-748.314,2475.292-748.314Zm0,33.776h-19.266v-31.706h19.266c11.1,0,17.958,5.046,17.958,15.814C2493.25-719.957,2486.923-714.538,2475.292-714.538Z" fill="#2182ad"/>
    <rect id="Rectangle_1750" data-name="Rectangle 1750" width="6.169" height="10.976" transform="translate(2458.61 -728.102)" fill="#2182ad"/>
    <path id="Path_3582" data-name="Path 3582" d="M2471.555-716.851a3.833,3.833,0,0,1-3.833,3.833,3.833,3.833,0,0,1-3.833-3.833,3.833,3.833,0,0,1,3.833-3.833A3.833,3.833,0,0,1,2471.555-716.851Z" transform="translate(-6.03 -16.78)" fill="#2182ad"/>
    <path id="Path_3583" data-name="Path 3583" d="M2503.477-728.027h-.106l-.589,2.014h1.284Zm0,0h-.106l-.589,2.014h1.284Zm0,0h-.106l-.589,2.014h1.284Zm0,0h-.106l-.589,2.014h1.284Zm0,0h-.106l-.589,2.014h1.284Zm0,0h-.106l-.589,2.014h1.284Zm4.253,5.168v-7.131h1.779v5.356h2.631c-.723-9.719-8.368-11.82-15.319-11.82h-7.406v6.468h1.1c2,0,3.24,1.355,3.24,3.534,0,2.25-1.213,3.6-3.24,3.6h-1.1v12.939h7.406c11.3,0,15.229-5.246,15.37-12.943Zm-8.49,0h-4.394v-7.131h4.253v1.779h-2.478v.825h2.345v1.775h-2.345v.978h2.619Zm5.749,0-.4-1.382h-2.325l-.4,1.382h-1.846l2.148-7.135h2.529l2.148,7.135Zm-1.618-5.172-.589,2.014h1.284l-.589-2.014Zm.106,0h-.106l-.589,2.014h1.284Zm0,0h-.106l-.589,2.014h1.284Zm-12.967-.185h-1.1v3.577h1.1c.758,0,1.461-.22,1.461-1.818C2491.97-728.011,2491.189-728.211,2490.51-728.211Z" transform="translate(-21.529 -7.203)" fill="#2182ad"/>
  </g>
</svg>
